<svg width="30" height="30" viewBox="0 0 30 30" fill="none" xmlns="http://www.w3.org/2000/svg">
<g clip-path="url(#clip0_233_48)">
<path d="M29.0375 3.35983H24.2251L21.1467 0.281499C21.0229 0.157749 20.8551 0.0882568 20.6801 0.0882568C20.5051 0.0882568 20.3372 0.157749 20.2135 0.281499L17.1351 3.35983H12.2008C11.8364 3.35983 11.541 3.65526 11.541 4.01971V5.28903C12.6548 5.9652 13.3736 7.18254 13.3803 8.52562L13.3814 8.7498L14.1897 8.24795C14.8619 7.83053 15.6609 7.78881 16.3422 8.06449L19.9984 6.48152C20.8678 6.10506 21.8782 6.50467 22.2546 7.37438C22.6311 8.24396 22.2314 9.25412 21.3618 9.63058L17.6193 11.2509C17.4316 11.6685 17.1218 12.0368 16.7034 12.2965C16.1289 12.6532 13.0615 14.5578 12.4814 14.918C12.1856 15.1016 11.8651 15.2124 11.5409 15.2556V16.4974C11.5409 16.8619 11.8363 17.1573 12.2008 17.1573H29.0374C29.4019 17.1573 29.6973 16.8619 29.6973 16.4974V4.01977H29.6974C29.6974 3.65532 29.4019 3.35983 29.0375 3.35983ZM19.0016 3.35977L20.68 1.68136L22.3584 3.35977H19.0016Z" fill="#FE9100"/>
<path d="M21.2857 7.79389C21.1409 7.45944 20.7523 7.30569 20.4179 7.45047L17.3149 8.79397C17.5979 9.15256 17.7684 9.57367 17.816 10.0152L20.9423 8.66166C21.2767 8.51694 21.4305 8.1284 21.2857 7.79389Z" fill="#FE9100"/>
<path d="M6.37032 0C5.00661 0 3.90112 1.10549 3.90112 2.46919C3.90112 3.84005 5.01587 4.93833 6.37032 4.93833C7.73074 4.93833 8.83951 3.83525 8.83951 2.46914C8.83951 1.10549 7.73397 0 6.37032 0Z" fill="#FE9100"/>
<path d="M16.4587 9.64391C16.1116 9.08499 15.3772 8.91308 14.8181 9.26018L12.4052 10.7583L12.394 8.53063C12.3862 6.98382 11.1214 5.72546 9.5746 5.72546C6.09619 5.72546 6.07293 5.72546 3.16598 5.72546C1.61917 5.72546 0.354366 6.98388 0.346573 8.53063L0.302628 17.2834C0.299288 17.9413 0.830029 18.4774 1.48798 18.4807C1.49009 18.4807 1.49202 18.4807 1.49413 18.4807C2.14932 18.4807 2.68212 17.9512 2.6854 17.2953L2.7294 8.54265C2.73004 8.41233 2.83604 8.30716 2.96641 8.30751C3.09678 8.30786 3.20213 8.41356 3.20213 8.54394C3.20219 11.391 3.20266 27.2679 3.20266 28.5704C3.20266 29.36 3.84268 30 4.63235 30C5.42201 30 6.06203 29.36 6.06203 28.5704V17.1428H6.67937V28.5702C6.67937 29.3599 7.31939 29.9999 8.10906 29.9999C8.89872 29.9999 9.53874 29.3599 9.53874 28.5702C9.53874 9.85608 9.51331 20.2013 9.51284 8.44362C9.51284 8.30347 9.62646 8.18991 9.7665 8.18985C9.90665 8.1898 10.0203 8.30329 10.0204 8.44345C10.0204 8.4738 10.0176 8.50673 10.0115 8.54259L10.0334 12.8997C10.0356 13.3311 10.2708 13.7276 10.6483 13.9363C11.0258 14.1451 11.4867 14.1335 11.8532 13.9058L16.0751 11.2845C16.634 10.9374 16.8058 10.2029 16.4587 9.64391Z" fill="#FE9100"/>
</g>
<defs>
<clipPath id="clip0_233_48">
<rect width="30" height="30" fill="white"/>
</clipPath>
</defs>
</svg>
