<svg width="30" height="30" viewBox="0 0 30 30" fill="none" xmlns="http://www.w3.org/2000/svg">
<path d="M22.0962 15.6924C20.7954 15.6924 19.5238 16.0781 18.4423 16.8008C17.3607 17.5235 16.5177 18.5506 16.0199 19.7524C15.5221 20.9542 15.3919 22.2766 15.6457 23.5524C15.8994 24.8282 16.5258 26.0001 17.4456 26.9199C18.3654 27.8397 19.5373 28.4661 20.8131 28.7199C22.0889 28.9736 23.4113 28.8434 24.6131 28.3456C25.8149 27.8478 26.842 27.0048 27.5647 25.9232C28.2874 24.8417 28.6731 23.5701 28.6731 22.2693C28.664 20.5278 27.9682 18.8602 26.7368 17.6288C25.5053 16.3973 23.8377 15.7015 22.0962 15.6924ZM23.2501 22.8462C23.0711 22.8418 22.8948 22.8026 22.7308 22.7308L20.2501 25.2116C20.1109 25.3493 19.9263 25.4314 19.7308 25.4424C19.6317 25.452 19.5318 25.4358 19.4408 25.3954C19.3498 25.3549 19.2709 25.2916 19.2116 25.2116C19.0725 25.063 18.9951 24.8671 18.9951 24.6635C18.9951 24.46 19.0725 24.2641 19.2116 24.1155L21.6924 21.6347C21.6267 21.4688 21.5877 21.2936 21.577 21.1155C21.5507 20.8404 21.5816 20.5628 21.6678 20.3003C21.754 20.0377 21.8936 19.7959 22.0779 19.59C22.2622 19.384 22.487 19.2185 22.7384 19.1037C22.9898 18.9889 23.2622 18.9275 23.5385 18.9232C23.7174 18.9275 23.8938 18.9667 24.0578 19.0385C24.1731 19.0385 24.1731 19.1539 24.1154 19.2116L22.9616 20.3078C22.9349 20.3212 22.9125 20.3418 22.8968 20.3673C22.8811 20.3928 22.8728 20.4221 22.8728 20.452C22.8728 20.4819 22.8811 20.5112 22.8968 20.5367C22.9125 20.5621 22.9349 20.5828 22.9616 20.5962L23.7116 21.3462C23.7321 21.3726 23.7583 21.3939 23.7883 21.4086C23.8183 21.4233 23.8513 21.4309 23.8847 21.4309C23.9181 21.4309 23.951 21.4233 23.981 21.4086C24.011 21.3939 24.0373 21.3726 24.0578 21.3462L25.1539 20.2501C25.2116 20.1924 25.3847 20.1924 25.3847 20.3078C25.4446 20.4754 25.4833 20.6498 25.5001 20.827C25.4957 21.1109 25.4327 21.3907 25.3151 21.6491C25.1974 21.9075 25.0276 22.1387 24.8163 22.3283C24.605 22.5179 24.3568 22.6618 24.0873 22.7509C23.8178 22.8401 23.5327 22.8725 23.2501 22.8462Z" fill="#FE9100"/>
<path d="M12.5192 16.0384C16.6295 16.0384 19.9615 12.7064 19.9615 8.59612C19.9615 4.48584 16.6295 1.15381 12.5192 1.15381C8.40894 1.15381 5.0769 4.48584 5.0769 8.59612C5.0769 12.7064 8.40894 16.0384 12.5192 16.0384Z" fill="#FE9100"/>
<path d="M14.5385 28.7307C15.8077 28.7307 15.1154 27.8653 15.1154 27.8653C13.8416 26.2787 13.1494 24.3038 13.1539 22.2691C13.1478 20.9939 13.4236 19.733 13.9616 18.5768C13.9858 18.5108 14.0253 18.4515 14.077 18.4037C14.4808 17.596 13.6731 17.5383 13.6731 17.5383C13.3098 17.4904 12.9433 17.4711 12.577 17.4807C9.86072 17.4912 7.2382 18.4748 5.18486 20.2529C3.13152 22.0311 1.7833 24.4861 1.38464 27.173C1.38464 27.7499 1.55772 28.7883 3.34618 28.7883H14.3654C14.4808 28.7307 14.4808 28.7307 14.5385 28.7307Z" fill="#FE9100"/>
</svg>
