<svg width="30" height="30" viewBox="0 0 30 30" fill="none" xmlns="http://www.w3.org/2000/svg">
<path d="M19.4231 14.3624C22.2436 14.3624 24.5512 12.0665 24.5512 9.26036C24.5512 6.45424 22.2436 4.15833 19.4231 4.15833C19.2948 4.15833 19.1667 4.15833 19.0384 4.15833C19.8077 5.43384 20.3204 6.96445 20.3204 8.49506C20.3204 10.6634 19.4231 12.7043 18.0128 14.2349C18.3974 14.3624 18.9102 14.3624 19.4231 14.3624Z" fill="#FE9100"/>
<path d="M21.6027 17.0408H20.3207C22.2437 18.6989 23.5258 21.25 23.5258 24.056C23.5258 24.6939 23.3976 25.204 23.2693 25.7143C24.9361 25.4591 25.9617 25.0765 26.6027 24.6939C27.2437 24.3111 27.5002 23.6734 27.5002 22.9081C27.5002 19.7194 24.8078 17.0408 21.6027 17.0408Z" fill="#FE9100"/>
<path d="M11.7307 14.3623C13.2692 14.3623 14.5512 13.8522 15.7051 12.8318C16.9871 11.8113 17.6281 10.1532 17.6281 8.49502C17.6281 7.21951 17.2435 5.944 16.4743 5.05115C15.4486 3.52053 13.782 2.50012 11.7307 2.50012C8.52556 2.50012 5.83325 5.1787 5.83325 8.36747C5.83325 11.6838 8.52556 14.3623 11.7307 14.3623Z" fill="#FE9100"/>
<path d="M15.1923 17.4236C14.8078 17.4236 14.5513 17.2961 14.1666 17.2961H9.29488C5.57693 17.2961 2.5 20.3574 2.5 24.0563C2.5 24.9491 2.88461 25.5869 3.52564 26.0971C4.55129 26.7349 6.98718 27.5001 11.7308 27.5001C16.4744 27.5001 18.782 26.7349 19.9359 26.0971C19.9359 26.0971 20.0641 25.9696 20.1923 25.9696C20.7051 25.5869 21.0898 24.9491 21.0898 24.0563C20.9615 20.74 18.5256 17.9339 15.1923 17.4236Z" fill="#FE9100"/>
</svg>
