<svg width="30" height="30" viewBox="0 0 30 30" fill="none" xmlns="http://www.w3.org/2000/svg">
<path d="M15 27.5004C21.9035 27.5004 27.5 24.982 27.5 21.8754C27.5 20.2921 26.0463 18.8615 23.7068 17.8394C22.2791 20.4591 20.1021 22.7172 17.3369 23.899C15.8505 24.5342 14.1495 24.5342 12.6631 23.899C9.89785 22.7172 7.72083 20.4591 6.29323 17.8394C3.95369 18.8615 2.5 20.2921 2.5 21.8754C2.5 24.982 8.09644 27.5004 15 27.5004Z" fill="#FE9100"/>
<path fill-rule="evenodd" clip-rule="evenodd" d="M6.25 10.6433C6.25 6.14587 10.1675 2.5 15 2.5C19.8325 2.5 23.75 6.14587 23.75 10.6433C23.75 15.1055 20.9572 20.3124 16.6001 22.1745C15.5844 22.6085 14.4156 22.6085 13.3999 22.1745C9.0427 20.3124 6.25 15.1055 6.25 10.6433ZM15 13.75C16.3807 13.75 17.5 12.6307 17.5 11.25C17.5 9.86929 16.3807 8.75 15 8.75C13.6193 8.75 12.5 9.86929 12.5 11.25C12.5 12.6307 13.6193 13.75 15 13.75Z" fill="#FE9100"/>
</svg>
