<svg width="30" height="30" viewBox="0 0 30 30" fill="none" xmlns="http://www.w3.org/2000/svg">
<g clip-path="url(#clip0_233_61)">
<path d="M19.3256 24.1177H10.6746C10.0685 24.1177 9.57703 24.6091 9.57703 25.2153V28.9024C9.57703 29.5085 10.0685 30 10.6746 30H19.3256C19.9317 30 20.4231 29.5085 20.4231 28.9024V25.2153C20.4231 24.6091 19.9318 24.1177 19.3256 24.1177Z" fill="#FE9100"/>
<path d="M28.0677 5.40006C28.6738 5.40006 29.1653 4.90863 29.1653 4.30248V1.09758C29.1653 0.491426 28.6738 0 28.0677 0H1.93242C1.32626 0 0.834839 0.491426 0.834839 1.09758V4.30254C0.834839 4.90869 1.32626 5.40012 1.93242 5.40012H2.66367V16.8502H1.93242C1.32626 16.8502 0.834839 17.3416 0.834839 17.9477V21.1527C0.834839 21.7588 1.32626 22.2503 1.93242 22.2503H13.9025V23.0202H16.0976V22.2503H28.0676C28.6738 22.2503 29.1652 21.7588 29.1652 21.1527V17.9477C29.1652 17.3416 28.6738 16.8502 28.0676 16.8502H27.3364V5.40006H28.0677ZM22.023 11.7462L20.5234 14.6818C20.0988 15.513 18.8966 15.4676 18.5346 14.6089L16.837 10.5813L15.3525 13.2761C15.0006 13.9149 14.1321 14.0398 13.6151 13.5226L11.8339 11.7415L9.87345 14.7448C9.54216 15.2525 8.86189 15.3952 8.35441 15.064C7.84675 14.7327 7.7039 14.0525 8.03531 13.5449L10.7349 9.40928C11.1152 8.82668 11.937 8.73996 12.43 9.23309L14.1344 10.9375L16.0072 7.53791C16.4483 6.73705 17.6241 6.79676 17.9799 7.64115L19.6414 11.5829L20.0681 10.7474C20.3439 10.2076 21.0052 9.99352 21.5449 10.2693C22.0847 10.5452 22.2988 11.2063 22.023 11.7462Z" fill="#FE9100"/>
</g>
<defs>
<clipPath id="clip0_233_61">
<rect width="30" height="30" fill="white"/>
</clipPath>
</defs>
</svg>
