<svg width="30" height="30" viewBox="0 0 30 30" fill="none" xmlns="http://www.w3.org/2000/svg">
<path d="M9.7496 3.86157H9.74831H4.0734C4.00818 5.48766 5.30808 6.81832 6.9115 6.81832C8.51485 6.81832 9.81481 5.48755 9.7496 3.86157Z" fill="#FE9100"/>
<path d="M12.4059 10.3642C12.3988 8.95135 11.2416 7.79846 9.82725 7.79846H3.97756C2.56287 7.79846 1.406 8.94942 1.39891 10.3642C1.39739 10.6609 1.36024 18.062 1.35866 18.3693C1.35561 18.9711 1.841 19.4614 2.44281 19.4644C2.44469 19.4644 2.44656 19.4644 2.44844 19.4644C3.04762 19.4644 3.53488 18.9801 3.53793 18.3802C3.53957 18.0608 3.57672 10.6562 3.57818 10.3751C3.57818 10.3743 3.57818 10.3734 3.57818 10.3727C3.57947 10.2569 3.67404 10.1639 3.78977 10.1646C3.90549 10.1652 3.99894 10.2593 3.99894 10.375C3.999 13.0983 3.99947 28.6922 3.99947 28.6922C3.99947 29.4144 4.58494 29.9998 5.30705 29.9998C6.02915 29.9998 6.61462 29.4144 6.61462 28.6922V18.2408H7.17917V28.6923C7.17917 29.4144 7.76464 29.9999 8.48675 29.9999C9.20885 29.9999 9.79432 29.4144 9.79432 28.6923C9.79432 10.7523 9.77059 21.918 9.77059 10.3668C9.77059 10.2409 9.87266 10.1387 9.99864 10.1387C10.1246 10.1387 10.2267 10.2408 10.2267 10.3667C10.2267 10.3696 10.2267 10.3723 10.2267 10.3752C10.2267 10.3752 10.2626 17.5196 10.2669 18.3804C10.2699 18.9803 10.7572 19.4645 11.3564 19.4645C11.3582 19.4645 11.3602 19.4645 11.3621 19.4645C11.9638 19.4615 12.4493 18.9712 12.4462 18.3695C12.4446 18.062 12.4074 10.6608 12.4059 10.3642Z" fill="#FE9100"/>
<path d="M11.3877 2.15947C11.0333 2.15947 9.94796 2.15947 9.55615 2.15947C9.19708 1.23363 8.36787 0.542694 7.36105 0.380097C7.3375 0.166347 7.15644 0 6.93637 0C6.71969 0 6.54109 0.161425 6.51314 0.370488C5.12758 0.561151 4.06018 1.7492 4.06018 3.18708C4.06018 3.18708 10.5458 3.16904 11.3877 3.16904C11.6665 3.16904 11.8925 2.9431 11.8925 2.66425C11.8926 2.38546 11.6666 2.15947 11.3877 2.15947Z" fill="#FE9100"/>
<path d="M28.5742 17.0726C28.1042 15.7866 26.8086 12.0709 25.9102 9.49228C25.5082 8.33833 24.4193 7.56355 23.1974 7.56308C22.0825 7.56267 20.9736 7.56238 19.8732 7.56238C18.6564 7.56238 17.5723 8.32855 17.165 9.47511C16.0498 12.6144 14.8372 16.0027 14.4462 17.0727C14.2373 17.644 14.5311 18.2766 15.1025 18.4855C15.6733 18.6943 16.3062 18.4009 16.5153 17.8292C17.0394 16.3961 18.2071 13.1439 18.7044 11.7561C18.3551 13.7086 17.5746 17.7145 17.1398 19.9589C17.0664 20.3378 17.3586 20.6879 17.7406 20.6879C17.9776 20.6879 18.2629 20.6879 18.5811 20.6879V28.6781C18.5811 29.4081 19.1729 30 19.9029 30C20.633 30 21.2248 29.4082 21.2248 28.6781V20.6878C21.4148 20.6878 21.6055 20.6878 21.7955 20.6878V28.6781C21.7955 29.4081 22.3873 30 23.1173 30C23.8474 30 24.4392 29.4082 24.4392 28.6781V20.6878C24.7574 20.6878 25.0428 20.6878 25.2797 20.6878C25.6638 20.6878 25.9538 20.3373 25.8805 19.9589C24.5821 13.2613 24.3738 12.2293 24.3159 11.756C25.1981 14.2535 26.4897 17.7871 26.505 17.8292C26.7139 18.4004 27.3462 18.6943 27.9179 18.4855C28.4892 18.2765 28.7831 17.644 28.5742 17.0726Z" fill="#FE9100"/>
<path d="M27.6779 6.67486C27.0519 5.38797 26.3183 4.92403 25.8732 4.70172C25.5357 4.53309 25.1756 4.50877 24.8562 4.71895L24.901 4.61377C24.974 4.44244 24.8942 4.24434 24.7229 4.17133C24.5762 4.10881 24.4103 4.15903 24.3197 4.28219C24.51 2.58175 23.1791 1.12183 21.497 1.12183C19.8119 1.12183 18.4844 2.58485 18.6743 4.28213C18.5837 4.15897 18.418 4.10887 18.2711 4.17133C18.0998 4.24434 18.0201 4.44239 18.093 4.61377L18.1378 4.71895C17.8185 4.50871 17.4584 4.53303 17.1208 4.70166C16.6758 4.92403 15.9421 5.38791 15.3162 6.6748C15.2476 6.81601 15.3827 6.97052 15.5315 6.92166C16.6386 6.55849 17.7594 6.88023 18.1961 6.66209C18.4376 6.54144 18.6245 6.32717 18.7044 6.0492C18.7461 6.14717 18.811 6.36976 19.064 6.36976C19.3045 6.36976 19.469 6.12309 19.3741 5.90031L19.3321 5.8017C19.8532 6.41471 20.6295 6.80406 21.4971 6.80406C22.3648 6.80406 23.141 6.41465 23.6622 5.80164L23.6201 5.90025C23.5253 6.12303 23.6896 6.36971 23.9303 6.36971C24.1828 6.36971 24.2484 6.14652 24.2899 6.0492C24.3696 6.32617 24.5558 6.54098 24.7981 6.66203C25.2349 6.88023 26.3556 6.55844 27.4627 6.9216C27.6114 6.97047 27.7465 6.81596 27.6779 6.67486Z" fill="#FE9100"/>
</svg>
