<svg width="40" height="40" viewBox="0 0 40 40" fill="none" xmlns="http://www.w3.org/2000/svg">
<path d="M5.71428 9.99998C5.71428 9.211 6.35388 8.57141 7.14285 8.57141H34.2857C35.0747 8.57141 35.7143 9.211 35.7143 9.99998C35.7143 10.789 35.0747 11.4286 34.2857 11.4286H7.14285C6.35388 11.4286 5.71428 10.789 5.71428 9.99998Z" fill="white"/>
<path d="M5.71428 19.9998C5.71428 19.2108 6.35388 18.571 7.14285 18.571L22.8571 18.5715C23.6461 18.5715 24.2857 19.211 24.2857 20C24.2857 20.789 23.6461 21.4286 22.8571 21.4286L7.14285 21.4283C6.35388 21.4283 5.71428 20.7886 5.71428 19.9998Z" fill="white"/>
<path d="M7.14285 28.5712C6.35388 28.5712 5.71428 29.2107 5.71428 29.9997C5.71428 30.7886 6.35388 31.4282 7.14285 31.4282H31.4286C32.2176 31.4282 32.8571 30.7886 32.8571 29.9997C32.8571 29.2107 32.2176 28.5712 31.4286 28.5712H7.14285Z" fill="white"/>
</svg>
