<svg width="36" height="36" viewBox="0 0 36 36" fill="none" xmlns="http://www.w3.org/2000/svg">
<path fill-rule="evenodd" clip-rule="evenodd" d="M4.21191 12.6504C4.97109 10.5674 6.35278 8.72758 7.76484 7.38955C6.53498 7.25271 5.66952 6.31001 5.50251 5.10883C-0.844181 11.3732 -1.48189 20.2072 2.46581 26.9582C10.2094 40.2016 29.2191 38.4226 34.7914 24.6166C35.338 23.2482 35.915 20.9827 35.9909 19.4014L32.5898 19.3862C32.2102 23.3546 30.3882 26.3956 28.2322 28.5851C24.2541 32.6296 18.3933 33.7243 13.322 32.1126C6.26168 29.8623 0.856366 21.8341 4.21191 12.6504ZM8.23553 2.88892C9.26801 2.88892 10.1031 3.72519 10.1031 4.75911C10.1031 5.79304 9.26801 6.62931 8.23553 6.62931C7.20305 6.62931 6.36796 5.79304 6.36796 4.75911C6.36796 3.72519 7.20305 2.88892 8.23553 2.88892ZM8.23553 3.36027C9.00989 3.36027 9.64759 3.98367 9.64759 4.77432C9.64759 5.54977 9.02507 6.18837 8.23553 6.18837C7.46117 6.18837 6.82347 5.56497 6.82347 4.77432C6.82347 3.99887 7.44599 3.36027 8.23553 3.36027ZM8.23553 3.20822C9.10099 3.20822 9.79943 3.90764 9.79943 4.77432C9.79943 5.64099 9.10099 6.34042 8.23553 6.34042C7.37007 6.34042 6.67163 5.64099 6.67163 4.77432C6.67163 3.90764 7.37007 3.20822 8.23553 3.20822ZM24.5122 11.1756V14.9159H27.64V8.68196C27.2149 8.59073 25.6965 7.45037 25.4232 7.46557C25.0284 7.48078 24.3604 7.72406 24.0719 7.8609C21.9766 8.86442 19.8812 11.0235 18.4692 12.8177C18.3933 12.9089 18.2718 13.0762 18.1959 13.137C16.8294 11.0995 14.5063 9.24454 12.411 7.98254L10.8319 7.11586C10.4068 7.73926 9.29837 8.36266 8.5392 8.43868V21.4996C11.2115 23.2938 14.6278 26.5172 16.2828 29.2693C16.6016 29.8015 16.465 30.0752 17.0875 30.06C17.7404 30.06 18.3933 30.06 19.0462 30.06C19.5472 30.06 19.4409 30.1056 19.7901 29.6646C24.0263 24.4798 27.0175 22.1687 31.9217 17.4552C35.7935 13.7452 35.0647 11.6317 33.7893 9.25975C29.872 2.46318 23.4797 0.0304097 18.0744 0C13.1246 0.0304097 9.89053 1.97663 9.34392 2.26552C10.4675 2.79769 11.1052 3.92285 10.8775 5.15444C14.9163 2.79769 20.0027 2.8129 24.1782 4.75911C25.575 5.41292 27.9133 6.94861 29.5379 8.77319C31.2233 10.6738 32.1343 12.8785 30.4489 14.7335C28.9306 16.406 25.4839 19.0213 23.6316 20.6786C21.764 22.4119 20.0938 24.3581 18.3933 26.2435C16.5864 23.7956 14.1874 21.7581 12.001 20.4809V11.2668C13.9445 13.0153 14.9011 14.2773 16.3283 16.3908C16.4194 16.5277 16.465 16.6493 16.5561 16.8013C16.6624 17.0142 16.632 17.1359 16.632 17.4095C16.632 19.1277 16.632 20.8306 16.632 22.5488H19.8509V16.6949C19.8964 16.3452 21.0048 14.7639 21.2478 14.4142C22.1284 13.1674 22.9939 12.2247 24.5426 11.1756H24.5122Z" fill="url(#paint0_linear_763_3)"/>
<defs>
<linearGradient id="paint0_linear_763_3" x1="1.88884" y1="16.4212" x2="35.9909" y2="16.4212" gradientUnits="userSpaceOnUse">
<stop stop-color="#FE9100"/>
<stop offset="1" stop-color="#FF4000"/>
</linearGradient>
</defs>
</svg>
