<svg width="35" height="35" viewBox="0 0 35 35" fill="none" xmlns="http://www.w3.org/2000/svg">
<g clip-path="url(#clip0_109_1148)">
<path d="M8.71264 33.0899C8.03616 32.8869 6.59747 32.3683 6.0665 32.063C5.27293 31.6064 4.65257 30.7868 4.59828 29.8731C4.56317 29.2838 4.70989 28.2058 4.85377 27.6333C5.17644 26.3512 6.129 23.4216 6.50676 22.4503C7.18446 20.7077 7.49849 19.7334 8.18096 19.1966C9.0907 18.4806 11.5254 17.5906 13.075 16.9653C13.346 16.7057 13.6421 16.4736 13.959 16.2724C14.4522 18.3842 15.327 20.6634 16.0208 22.7177C16.5484 24.2791 16.9589 25.3158 17.5801 26.8562C18.046 25.4768 18.5119 24.0973 18.9777 22.7177C19.6714 20.6634 20.5464 18.3842 21.0392 16.2722C21.3563 16.4736 21.6526 16.706 21.9238 16.9659C23.4737 17.5911 25.9071 18.4808 26.8167 19.1966C27.4988 19.7334 27.8129 20.7077 28.4909 22.4503C28.8686 23.4216 29.8212 26.3512 30.1439 27.6333C30.2878 28.2058 30.4345 29.2838 30.3993 29.8731C30.3451 30.7863 29.7247 31.6067 28.9311 32.063C28.4002 32.3683 26.9615 32.8869 26.285 33.0899H8.71264Z" fill="#BDBDBD"/>
<path d="M22.7216 8.66967C22.8061 8.5962 22.9055 8.54185 23.013 8.51033C23.1205 8.4788 23.2335 8.47086 23.3443 8.48703C23.4531 8.50242 23.5571 8.542 23.6486 8.60286C23.7401 8.66372 23.8168 8.74431 23.8731 8.83872C23.9382 8.9689 23.9753 9.11133 23.9818 9.25676C24.0293 9.82577 23.9194 10.3969 23.664 10.9076C23.5438 11.1657 23.3693 11.3948 23.1523 11.5793C22.9761 11.7222 22.7659 11.8169 22.5421 11.8543L22.4377 11.8705C22.3876 12.0578 22.3314 12.2155 22.3038 12.2995C22.1277 12.7773 21.15 14.4202 19.9148 15.0424C19.9059 15.3511 19.9519 15.659 20.0508 15.9516C20.3015 16.5726 21.6561 17.3539 21.7495 17.3947C21.7495 17.3947 21.892 19.6697 17.5027 19.6697C13.1134 19.6697 13.2484 17.3947 13.2484 17.3947C13.3418 17.3541 14.4836 16.6814 14.7352 16.0604C14.8689 15.7306 14.8741 15.3045 14.8718 14.9147C14.4127 14.6316 14.0045 14.2732 13.6643 13.8547C13.1929 13.2765 12.849 12.6053 12.6551 11.8849L12.4563 11.8545C12.2325 11.8171 12.0223 11.7224 11.846 11.5795C11.6291 11.3951 11.4546 11.1659 11.3344 10.9078C11.079 10.397 10.969 9.82586 11.0164 9.25676C11.0229 9.11133 11.06 8.9689 11.1251 8.83872C11.1814 8.74442 11.2581 8.66393 11.3495 8.60314C11.4409 8.54236 11.5448 8.50282 11.6536 8.48744C11.7644 8.47127 11.8774 8.47921 11.9849 8.51073C12.0923 8.54225 12.1917 8.59661 12.2763 8.67008C12.2763 8.67008 11.1898 4.03601 17.3223 4.03601C23.4548 4.03601 22.7216 8.66967 22.7216 8.66967Z" fill="white"/>
<path d="M17.7562 17.4958L17.022 17.4973L13.9578 16.2672C14.4507 18.3805 15.3265 20.6616 16.0208 22.7176C16.5484 24.2791 16.9589 25.3158 17.5801 26.8562C18.046 25.4767 18.5119 24.0972 18.9777 22.7176C19.6719 20.6616 20.5478 18.3805 21.0407 16.2672L17.903 17.495L17.7562 17.4958Z" fill="white"/>
<path d="M13.0223 16.7256C12.2463 17.0385 11.4645 17.3369 10.6916 17.6573C9.95087 17.9641 9.20194 18.2762 8.51004 18.6839C8.2537 18.826 8.01735 19.0014 7.80719 19.2057C7.60089 19.425 7.4258 19.6717 7.28687 19.9388C6.87623 20.6989 6.60156 21.5353 6.28986 22.3386C5.79724 23.6085 5.3929 24.9187 5.00022 26.2221C4.80031 26.8331 4.63719 27.4554 4.51176 28.0859C4.43617 28.5085 4.38535 28.9351 4.35956 29.3636C4.32441 29.7628 4.36728 30.165 4.48579 30.5478C4.77264 31.3417 5.35696 31.993 6.11524 32.364C6.79562 32.6861 7.4974 32.9609 8.21559 33.1864C8.35937 33.2344 8.50365 33.281 8.64885 33.3248C8.9496 33.4154 9.07805 32.9455 8.77832 32.8551C8.09649 32.6497 7.42627 32.4076 6.77061 32.1298C6.10722 31.8484 5.51415 31.4629 5.1438 30.824C4.95056 30.4962 4.8449 30.1242 4.83696 29.7438C4.83572 29.3616 4.8638 28.9797 4.92098 28.6017C5.02021 27.9639 5.16703 27.3344 5.36022 26.7184C5.74803 25.3994 6.16506 24.083 6.63769 22.7917C6.90353 22.0651 7.17404 21.3317 7.49173 20.626C7.6149 20.3384 7.76518 20.0632 7.94051 19.8041C8.01104 19.7043 8.09011 19.6108 8.17683 19.5248C8.21863 19.4832 8.26213 19.4436 8.30731 19.4057C8.31929 19.3956 8.33146 19.3854 8.34364 19.3761C8.37479 19.3512 8.31726 19.3958 8.34922 19.3717C8.37817 19.35 8.4075 19.3288 8.43719 19.3079C9.0192 18.9 9.6905 18.6114 10.3399 18.3305C11.1 18.0018 11.8726 17.703 12.6426 17.3984C12.8126 17.3313 12.9823 17.2636 13.1517 17.1955C13.2129 17.1766 13.2646 17.1351 13.2962 17.0794C13.3279 17.0237 13.337 16.9581 13.3219 16.8959C13.3043 16.8338 13.263 16.7812 13.207 16.7494C13.1509 16.7175 13.0845 16.7091 13.0223 16.7258V16.7256Z" fill="#211715"/>
<path d="M21.8452 17.1953C22.5968 17.4983 23.3538 17.7877 24.103 18.0968C24.8196 18.3764 25.5169 18.7031 26.1902 19.0749C26.3199 19.1498 26.4475 19.2285 26.5699 19.315C26.663 19.3791 26.7496 19.4521 26.8284 19.533C27.0141 19.7257 27.1695 19.9454 27.2894 20.1846C27.6802 20.9081 27.9405 21.7035 28.2372 22.4675C28.7141 23.6965 29.1061 24.9636 29.4892 26.2247C29.6835 26.8167 29.8476 27.4181 29.9809 28.0267C30.0567 28.4144 30.1098 28.8062 30.14 29.2001C30.185 29.5646 30.1652 29.9342 30.0814 30.2918C29.8745 31.027 29.2989 31.6157 28.6251 31.9485C27.9811 32.2508 27.3172 32.5089 26.6381 32.721C26.4992 32.7673 26.3599 32.8123 26.2196 32.8545C25.9203 32.9447 26.0478 33.4149 26.3491 33.3241C27.0609 33.108 27.7606 32.8534 28.4449 32.5616C28.7553 32.44 29.051 32.2839 29.3265 32.0962C29.6899 31.8386 29.9989 31.5117 30.2357 31.1344C30.4694 30.7592 30.6084 30.3328 30.6408 29.8919C30.6571 29.5028 30.6365 29.1129 30.5792 28.7276C30.488 28.0431 30.3413 27.3671 30.1406 26.7063C29.7449 25.3467 29.3154 23.9916 28.8288 22.6619C28.5503 21.9009 28.264 21.1347 27.9324 20.3949C27.6779 19.8273 27.3657 19.2947 26.8553 18.9228C26.2705 18.4967 25.5807 18.2035 24.9204 17.9175C24.1214 17.5713 23.31 17.2554 22.5004 16.9353C22.325 16.8659 22.1497 16.796 21.9746 16.7256C21.9123 16.7088 21.846 16.7173 21.7899 16.7491C21.7338 16.7809 21.6925 16.8336 21.675 16.8956C21.6594 16.9579 21.6684 17.0237 21.7 17.0795C21.7317 17.1353 21.7838 17.1768 21.8452 17.1953Z" fill="#211715"/>
<path d="M23.6314 4.94868C23.6014 4.84343 23.5678 4.73882 23.5308 4.63485C23.1847 3.66727 22.4878 2.47534 21.5182 2.0641L20.6786 1.42689C20.3283 1.03574 19.5732 0.630479 18.9621 0.462958C18.3469 0.284636 17.7053 0.215069 17.0662 0.257387C15.4873 0.37245 14.1453 0.962578 13.1006 2.15968L12.4836 2.96765C11.4259 4.11331 10.8359 5.79045 11.3965 8.30742L11.4503 8.54901C11.5146 8.51862 11.5829 8.49787 11.6532 8.48742C11.7641 8.47125 11.8771 8.47919 11.9845 8.51071C12.092 8.54224 12.1914 8.59659 12.2759 8.67006L13.1013 8.05639C13.5907 7.79116 13.7862 7.46282 14.0888 6.84996C14.3076 6.40706 14.4378 5.88948 14.812 5.57433C15.0938 5.3371 15.4698 5.25663 15.8325 5.21838C16.4609 5.15288 17.0952 5.17028 17.719 5.27013C18.3759 5.38174 19.0847 5.10017 19.8193 5.2817C20.6499 5.46028 21.1605 5.9672 21.5783 6.61801C21.7381 6.86807 21.8706 7.13464 21.9733 7.4131C22.0335 7.5753 22.0835 7.74108 22.1232 7.90947C22.1626 8.07649 22.1868 8.23964 22.2123 8.41193C22.2214 8.46319 22.2406 8.51213 22.2687 8.55595C22.2968 8.59976 22.3333 8.63758 22.3761 8.66722C22.4299 8.69309 22.4888 8.70674 22.5486 8.70721C22.6083 8.70769 22.6674 8.69497 22.7217 8.66996C22.8062 8.59649 22.9056 8.54213 23.0131 8.51061C23.1206 8.47909 23.2336 8.47115 23.3444 8.48732C23.3956 8.495 23.4459 8.50792 23.4945 8.52588C23.9068 7.37591 23.9546 6.12681 23.6314 4.94868Z" fill="#7A7473"/>
<path d="M19.7545 5.51625C20.1096 5.58928 20.4415 5.74778 20.7215 5.97803C21.0031 6.22484 21.2423 6.5162 21.4296 6.84049C21.6763 7.2523 21.8459 7.70562 21.93 8.17822C21.9706 8.40338 21.9795 8.62742 22.1522 8.79899C22.237 8.87489 22.3417 8.92513 22.4539 8.94386C22.5662 8.9626 22.6814 8.94906 22.7863 8.90482C22.8476 8.88622 22.8995 8.84476 22.9311 8.78902C22.9628 8.73327 22.9718 8.6675 22.9564 8.60529C22.9387 8.5433 22.8975 8.49071 22.8414 8.45888C22.7854 8.42704 22.7191 8.41852 22.6568 8.43514C22.6128 8.45127 22.5418 8.48404 22.4966 8.45462C22.4398 8.41768 22.442 8.31256 22.4331 8.25412C22.4003 8.02328 22.3504 7.7952 22.2837 7.57176C22.147 7.12833 21.9422 6.70881 21.6768 6.32819C21.2355 5.69605 20.6486 5.21723 19.884 5.04687C19.5786 4.97889 19.4483 5.44837 19.7545 5.51656V5.51625Z" fill="#211715"/>
<path d="M17.7837 5.0349C17.3593 4.96043 16.9286 4.92773 16.4978 4.93729C16.0761 4.92726 15.655 4.9755 15.2465 5.08066C14.8419 5.19831 14.4989 5.46865 14.29 5.83456C14.0851 6.18451 13.9695 6.57841 13.7701 6.93192C13.5515 7.31921 13.2657 7.68013 12.8626 7.88499C12.5832 8.02704 12.8294 8.44732 13.1085 8.30547C13.8465 7.93004 14.2152 7.17056 14.529 6.44863C14.6754 6.11197 14.8446 5.78717 15.1886 5.62087C15.527 5.45741 15.9375 5.44269 16.3063 5.4293C16.7568 5.40529 17.2085 5.43064 17.6535 5.50489C17.7157 5.5203 17.7814 5.51125 17.8372 5.47961C17.8929 5.44796 17.9344 5.39615 17.953 5.33484C17.9696 5.27257 17.9611 5.20627 17.9293 5.15023C17.8975 5.09419 17.8449 5.05288 17.783 5.03521L17.7837 5.0349Z" fill="#211715"/>
<path d="M21.3953 2.27435C22.1585 2.60594 22.6681 3.34157 23.0257 4.06442C23.6654 5.37297 23.7741 6.87821 23.3292 8.26512C23.2321 8.56394 23.7022 8.69189 23.7988 8.39459C24.0997 7.4517 24.1664 6.44969 23.9932 5.47522C23.8199 4.50076 23.4119 3.58316 22.8044 2.80177C22.4996 2.39561 22.1001 2.07016 21.6407 1.85377C21.5845 1.82321 21.5187 1.81524 21.4568 1.83147C21.395 1.8477 21.3416 1.88692 21.3076 1.94113C21.2754 1.99701 21.2666 2.0633 21.2829 2.12566C21.2993 2.18802 21.3395 2.24144 21.395 2.27435H21.3953Z" fill="#211715"/>
<path d="M12.3114 2.7954C11.8552 3.28937 11.5004 3.86812 11.2671 4.49882C11.0115 5.22755 10.9013 5.99939 10.9431 6.77055C10.9689 7.3098 11.0421 7.84574 11.1617 8.37219C11.2291 8.67822 11.6988 8.54874 11.6314 8.24272C11.3144 6.80464 11.3043 5.23932 12.0656 3.93649C12.2326 3.65015 12.4306 3.38299 12.6558 3.13978C12.8675 2.90914 12.5239 2.56385 12.3114 2.7954Z" fill="#211715"/>
<path d="M20.8508 1.25471C20.4754 0.844788 19.9462 0.570626 19.4368 0.367186C18.8342 0.134971 18.1953 0.0111366 17.5496 0.00139983C16.4226 -0.024583 15.31 0.257856 14.3319 0.818204C13.8048 1.13078 13.3311 1.52548 12.9285 1.9874C12.7223 2.22199 13.0655 2.56779 13.2729 2.33178C13.9215 1.58248 14.7691 1.03218 15.7175 0.744539C16.8005 0.407919 17.9599 0.406822 19.0436 0.741394C19.568 0.910437 20.1293 1.18734 20.5064 1.59909C20.7185 1.83084 21.0621 1.48575 20.8508 1.25471Z" fill="#211715"/>
<path d="M19.2739 5.25597C19.1191 4.76894 18.7031 4.4067 18.2472 4.20245C17.7246 3.96803 17.144 3.89477 16.5795 3.99201C16.5175 4.00961 16.4649 4.05089 16.4331 4.10693C16.4013 4.16298 16.3928 4.22928 16.4095 4.29154C16.4279 4.35299 16.4693 4.40497 16.5251 4.43664C16.5809 4.46832 16.6468 4.47726 16.709 4.46159C17.1463 4.39029 17.595 4.44633 18.0014 4.62303C18.3362 4.77005 18.6886 5.02149 18.8042 5.38545C18.8988 5.68305 19.3691 5.55581 19.2739 5.25597Z" fill="#211715"/>
<path d="M22.2901 11.2745C22.2771 11.5003 22.2348 11.7236 22.1645 11.9386C22.1397 12.0213 22.1125 12.1031 22.0851 12.1849C22.0776 12.2071 22.0695 12.229 22.0621 12.2511C22.0405 12.3156 22.0741 12.2272 22.0584 12.2612C21.9575 12.4785 21.8426 12.689 21.7143 12.8913C21.3476 13.4999 20.8785 14.0407 20.3278 14.4898C20.0301 14.7336 19.6824 14.9091 19.3094 15.0038C19.0041 15.0741 19.1334 15.5438 19.4389 15.4735C20.2129 15.2953 20.8622 14.7409 21.3746 14.1583C21.812 13.6769 22.1776 13.135 22.4603 12.5492C22.6473 12.1487 22.755 11.7157 22.7774 11.2742C22.7875 10.9606 22.3005 10.9611 22.2903 11.2742L22.2901 11.2745Z" fill="#211715"/>
<path d="M12.2522 11.2019C12.5354 12.8355 13.4199 14.4353 14.9315 15.2266C15.345 15.4435 15.7962 15.5791 16.2607 15.6262C16.3252 15.6258 16.3869 15.6 16.4325 15.5544C16.478 15.5089 16.5038 15.4472 16.5043 15.3827C16.5029 15.3186 16.4768 15.2574 16.4314 15.2121C16.386 15.1667 16.3249 15.1406 16.2607 15.1392C14.7014 14.9768 13.4878 13.5758 13 12.1708C12.8777 11.8128 12.7848 11.4455 12.722 11.0724C12.7044 11.0104 12.6631 10.9579 12.607 10.9261C12.551 10.8942 12.4847 10.8857 12.4225 10.9024C12.361 10.9207 12.309 10.9622 12.2773 11.018C12.2456 11.0738 12.2365 11.1397 12.2522 11.2019Z" fill="#211715"/>
<path d="M22.8938 8.84185C22.9997 8.75547 23.1351 8.71354 23.2713 8.72489C23.4076 8.73625 23.5341 8.8 23.6243 8.90273C23.7302 9.03586 23.7394 9.22814 23.7461 9.39058C23.7555 9.58445 23.7446 9.77878 23.7134 9.97036C23.5968 10.6543 23.2385 11.4877 22.4768 11.6194C22.4149 11.637 22.3623 11.6783 22.3305 11.7343C22.2987 11.7904 22.2902 11.8567 22.3068 11.9189C22.3252 11.9804 22.3666 12.0324 22.4224 12.0641C22.4782 12.0958 22.5441 12.1047 22.6063 12.089C23.4066 11.9507 23.8806 11.1929 24.0965 10.4701C24.2079 10.0987 24.2529 9.71055 24.2295 9.32351C24.2045 8.9351 24.0874 8.57003 23.7292 8.3679C23.5431 8.2654 23.3298 8.22285 23.1186 8.24603C22.9073 8.26922 22.7084 8.35703 22.5489 8.49748C22.5037 8.5434 22.4784 8.60524 22.4784 8.66967C22.4784 8.73409 22.5037 8.79593 22.5489 8.84185C22.5952 8.88631 22.6569 8.91114 22.7211 8.91114C22.7853 8.91114 22.847 8.88631 22.8933 8.84185H22.8938Z" fill="#211715"/>
<path d="M12.4484 8.49754C12.309 8.37404 12.1388 8.29069 11.9557 8.25638C11.7727 8.22207 11.5838 8.23809 11.4092 8.30273C11.0274 8.4532 10.8314 8.77434 10.7823 9.17077C10.6903 9.94737 10.8847 10.7309 11.329 11.3744C11.5754 11.7428 11.9569 11.9995 12.391 12.0889C12.4532 12.1042 12.5189 12.0951 12.5746 12.0635C12.6303 12.0318 12.6718 11.9801 12.6905 11.9188C12.7071 11.8565 12.6986 11.7902 12.6668 11.7342C12.635 11.6782 12.5824 11.6369 12.5204 11.6193C11.7588 11.4873 11.4005 10.6541 11.2839 9.97023C11.2539 9.78598 11.2428 9.59917 11.2506 9.41267C11.2563 9.2489 11.2626 9.05469 11.3632 8.917C11.4068 8.86329 11.4606 8.81872 11.5215 8.78585C11.5824 8.75298 11.6491 8.73247 11.718 8.7255C11.7868 8.71852 11.8563 8.72521 11.9226 8.74519C11.9888 8.76517 12.0504 8.79804 12.1039 8.84192C12.1504 8.88606 12.212 8.91067 12.2761 8.91067C12.3402 8.91067 12.4018 8.88606 12.4483 8.84192C12.4935 8.79599 12.5188 8.73415 12.5188 8.66973C12.5188 8.60531 12.4936 8.54347 12.4484 8.49754Z" fill="#211715"/>
<path d="M19.6712 15.0445C19.6784 15.4402 19.7009 15.8827 19.9206 16.2257C20.0841 16.4639 20.284 16.675 20.5129 16.8513C20.7407 17.037 20.9792 17.2093 21.227 17.3673C21.3544 17.4557 21.4879 17.5349 21.6264 17.6045C21.6826 17.6352 21.7485 17.6433 21.8104 17.627C21.8724 17.6108 21.9258 17.5715 21.9597 17.5171C21.9918 17.4612 22.0006 17.395 21.9842 17.3326C21.9679 17.2703 21.9277 17.2169 21.8723 17.184C21.7474 17.1214 21.627 17.0505 21.5117 16.9716C21.3011 16.8398 21.0977 16.6969 20.9023 16.5434C20.7905 16.4547 20.6832 16.3603 20.581 16.2607C20.5035 16.1857 20.4319 16.1047 20.367 16.0184C20.3331 15.97 20.3031 15.9189 20.2774 15.8656C20.3045 15.9221 20.2613 15.8212 20.2587 15.8134C20.2416 15.7627 20.2276 15.7112 20.2157 15.6593C20.1754 15.4569 20.1561 15.2508 20.1582 15.0445C20.1525 14.7315 19.6655 14.7304 19.6712 15.0445Z" fill="#211715"/>
<path d="M13.3713 17.6044C13.5056 17.5365 13.6342 17.4578 13.7558 17.3692C13.9878 17.2153 14.2082 17.0446 14.4153 16.8585C14.6243 16.6825 14.7975 16.4681 14.9256 16.2268C15.0981 15.8626 15.1132 15.4434 15.1152 15.0474C15.1166 14.7339 14.6296 14.7335 14.6281 15.0474C14.6309 15.2338 14.6216 15.4202 14.6001 15.6054C14.5815 15.7503 14.5421 15.8917 14.4831 16.0253C14.364 16.228 14.2091 16.4074 14.0259 16.5548C13.8505 16.7082 13.6644 16.8489 13.4691 16.976C13.3598 17.0541 13.2448 17.1237 13.1249 17.1842C13.0695 17.2171 13.0293 17.2705 13.0129 17.3329C12.9966 17.3952 13.0054 17.4615 13.0375 17.5174C13.0711 17.572 13.1245 17.6116 13.1866 17.6279C13.2487 17.6442 13.3146 17.6359 13.3707 17.6047L13.3713 17.6044Z" fill="#211715"/>
<path d="M16.2021 23.2282C16.4119 21.5096 16.7004 19.402 16.7004 19.342C16.6962 19.235 16.6788 19.1288 16.6489 19.0259C16.6369 18.9778 16.6249 18.9313 16.6146 18.8832C16.5501 18.6073 16.5093 18.4165 16.4505 18.1113C16.5352 18.0232 16.6189 17.9347 16.6993 17.8464C16.8373 17.6948 16.9497 17.5813 17.0342 17.4975C17.3589 17.4969 17.6118 17.4961 17.9612 17.4948C18.0463 17.5794 18.1593 17.6935 18.2985 17.8464C18.3968 17.9541 18.4997 18.062 18.6029 18.1693C18.5522 18.3728 18.5059 18.579 18.4287 18.8161C18.3598 18.9957 18.3181 19.1846 18.305 19.3764C18.3033 19.4744 18.5835 21.3236 18.8481 23.0937L16.2021 23.2282Z" fill="#3F88C9"/>
<path d="M16.7733 19.5707C17.2683 19.5707 17.7632 19.5599 18.2582 19.5597C18.3227 19.5597 18.3847 19.534 18.4304 19.4883C18.476 19.4427 18.5017 19.3807 18.5017 19.3162C18.5017 19.2516 18.476 19.1896 18.4304 19.144C18.3847 19.0983 18.3227 19.0726 18.2582 19.0726C17.7632 19.0726 17.2683 19.0836 16.7733 19.0837C16.7087 19.0837 16.6468 19.1093 16.6011 19.155C16.5554 19.2007 16.5298 19.2626 16.5298 19.3272C16.5298 19.3918 16.5554 19.4537 16.6011 19.4994C16.6468 19.5451 16.7087 19.5707 16.7733 19.5707Z" fill="#211715"/>
<path d="M16.2403 18.3033C16.2815 18.5111 16.3267 18.718 16.3742 18.9245C16.4213 19.0647 16.4487 19.2108 16.4554 19.3585C16.4465 19.5063 16.4185 19.6551 16.3993 19.8017C16.3105 20.4815 16.2203 21.1614 16.1328 21.8412C16.0733 22.3033 16.0152 22.7655 15.9584 23.2278C15.9587 23.2923 15.9845 23.354 16.0301 23.3996C16.0757 23.4452 16.1374 23.471 16.2019 23.4714C16.266 23.4698 16.3271 23.4437 16.3724 23.3983C16.4177 23.353 16.4439 23.2919 16.4454 23.2278C16.544 22.4206 16.6483 21.6145 16.7542 20.8079C16.8166 20.3318 16.9026 19.8525 16.9408 19.3735C16.9419 19.2173 16.9186 19.0619 16.8716 18.9129C16.812 18.6676 16.7589 18.421 16.7099 18.1735C16.6922 18.1116 16.6509 18.059 16.5949 18.0272C16.5389 17.9954 16.4727 17.9868 16.4104 18.0033C16.3488 18.0216 16.2967 18.0631 16.265 18.1189C16.2333 18.1748 16.2244 18.2407 16.2402 18.303L16.2403 18.3033Z" fill="#211715"/>
<path d="M17.9026 17.252C17.609 17.2524 17.3155 17.253 17.022 17.2538C16.9574 17.2538 16.8954 17.2794 16.8498 17.3251C16.8041 17.3708 16.7784 17.4327 16.7784 17.4973C16.7784 17.5619 16.8041 17.6238 16.8498 17.6695C16.8954 17.7152 16.9574 17.7408 17.022 17.7408C17.3155 17.7403 17.609 17.7397 17.9026 17.739C17.9672 17.739 18.0291 17.7133 18.0748 17.6677C18.1205 17.622 18.1461 17.5601 18.1461 17.4955C18.1461 17.4309 18.1205 17.3689 18.0748 17.3233C18.0291 17.2776 17.9672 17.252 17.9026 17.252Z" fill="#211715"/>
<path d="M19.0838 23.0287C18.9688 22.2576 18.8536 21.4868 18.7381 20.7163C18.6955 20.4295 18.6534 20.1426 18.6119 19.8555C18.5979 19.7577 18.5841 19.6598 18.5707 19.5618C18.5639 19.5131 18.5765 19.6076 18.5685 19.5461C18.5665 19.5308 18.5645 19.5157 18.5626 19.5003C18.5593 19.475 18.5556 19.4496 18.5533 19.424C18.5482 19.3182 18.5618 19.2122 18.5934 19.111C18.6511 18.8947 18.7266 18.684 18.7813 18.4666C18.8579 18.1622 18.3883 18.0328 18.3117 18.3371C18.2266 18.6751 18.0471 19.0372 18.0631 19.3908C18.0697 19.5379 18.1 19.6863 18.1205 19.8318C18.2102 20.4691 18.3069 21.1053 18.402 21.7418C18.4728 22.2139 18.5435 22.686 18.6142 23.1582C18.6317 23.2202 18.673 23.2729 18.7291 23.3047C18.7851 23.3365 18.8515 23.345 18.9137 23.3283C18.9751 23.3097 19.027 23.2683 19.0587 23.2125C19.0904 23.1568 19.0993 23.0909 19.0838 23.0287Z" fill="#211715"/>
<path d="M17.4382 27.2756C17.9513 25.7562 18.4644 24.2369 18.9774 22.7176C19.6716 20.6616 20.5475 18.3805 21.0404 16.2672C21.6706 16.6482 22.5528 17.4907 22.8728 18.128C22.89 18.1546 22.8972 18.1864 22.8931 18.2178C22.8841 18.2526 22.8497 18.2736 22.8182 18.291L21.9659 18.7608C22.2862 19.0506 22.6131 19.3517 22.9117 19.6655C22.9568 19.7104 22.9843 19.7699 22.9893 19.8333C22.988 19.8859 22.9731 19.9372 22.9458 19.9821C21.8392 22.0715 20.5139 24.3317 19.2888 26.3813L17.4382 27.2756Z" fill="#BDBDBD"/>
<path d="M15.9249 26.5566C14.6278 24.4679 13.1585 22.0718 12.0512 19.9816C12.024 19.9367 12.009 19.8854 12.0078 19.8329C12.0127 19.7694 12.0402 19.7099 12.0853 19.665C12.3839 19.3512 12.7109 19.0501 13.0312 18.7604L12.1789 18.2905C12.1473 18.2731 12.1129 18.2521 12.104 18.2173C12.0998 18.1859 12.107 18.1541 12.1243 18.1275C12.4442 17.4902 13.3265 16.6477 13.9567 16.2667C14.4496 18.38 15.3255 20.6611 16.0197 22.7171C16.5327 24.2364 16.9355 25.259 17.5292 26.7321L15.9249 26.5566Z" fill="#BDBDBD"/>
<path d="M17.6735 27.3403C18.1808 25.8369 18.6883 24.3335 19.1961 22.8299C19.6619 21.4505 20.1658 20.084 20.6088 18.697C20.8581 17.9165 21.0882 17.1294 21.2752 16.3316C21.3462 16.0272 20.8772 15.8965 20.8056 16.202C20.4701 17.6333 19.9998 19.0292 19.518 20.4166C19.0266 21.8317 18.5413 23.2488 18.0622 24.668L17.2035 27.211C17.1029 27.5086 17.5732 27.6362 17.673 27.3405L17.6735 27.3403Z" fill="#211715"/>
<path d="M13.7226 16.3319C14.0617 17.7785 14.5384 19.189 15.0257 20.5911C15.4942 21.939 15.9417 23.2958 16.4438 24.6315C16.7168 25.3576 17.0052 26.0777 17.2951 26.7972C17.314 26.8584 17.3555 26.9101 17.4112 26.9417C17.4668 26.9733 17.5325 26.9824 17.5946 26.9673C17.6567 26.9497 17.7093 26.9084 17.7412 26.8524C17.773 26.7963 17.7814 26.7299 17.7647 26.6677C17.2424 25.3713 16.7359 24.0701 16.2869 22.7462C15.814 21.3523 15.3065 19.97 14.8586 18.5678C14.6094 17.7873 14.3793 17.0002 14.1922 16.2023C14.1212 15.8973 13.6511 16.0265 13.7226 16.3319Z" fill="#211715"/>
<path d="M19.335 18.9494C19.9904 18.1848 20.531 17.3289 20.9398 16.4086C20.7407 16.0247 20.6069 15.7759 20.2683 15.465C19.8811 15.9855 18.997 16.6356 17.9374 17.0618C17.8617 17.0866 17.7917 17.1262 17.7314 17.1783C17.7061 17.2255 17.7554 17.267 17.7786 17.3042C17.815 17.3625 17.994 17.5123 18.2986 17.8466C18.6442 18.2255 19.049 18.6077 19.335 18.9494Z" fill="white"/>
<path d="M15.6628 18.9494C15.0074 18.1848 14.4668 17.3289 14.058 16.4086C14.2571 16.0247 14.3909 15.7759 14.7295 15.465C15.1167 15.9855 16.0008 16.6356 17.0604 17.0618C17.1361 17.0866 17.2061 17.1262 17.2663 17.1783C17.2917 17.2255 17.2424 17.267 17.2192 17.3042C17.1827 17.3625 17.0038 17.5123 16.6992 17.8466C16.3536 18.2255 15.9485 18.6077 15.6628 18.9494Z" fill="white"/>
<path d="M19.5072 19.1216C20.003 18.5399 20.437 17.9081 20.8019 17.2365C20.891 17.0697 20.976 16.9009 21.0571 16.7301C21.1026 16.6345 21.1833 16.5151 21.1833 16.4086C21.1669 16.3068 21.1269 16.2102 21.0667 16.1266C20.9061 15.8154 20.6944 15.5335 20.4404 15.2924C20.4137 15.2669 20.3816 15.2477 20.3465 15.2362C20.3114 15.2247 20.2741 15.2212 20.2375 15.2259C20.2008 15.2306 20.1657 15.2435 20.1347 15.2635C20.1036 15.2836 20.0774 15.3103 20.058 15.3417C19.9717 15.4489 19.8783 15.5501 19.7785 15.6447C19.6603 15.7575 19.5357 15.8635 19.4055 15.9622C19.0759 16.2092 18.7242 16.4253 18.3549 16.6077C18.1587 16.7058 17.9555 16.7853 17.7563 16.8763C17.5533 16.9689 17.3988 17.1557 17.5343 17.38C17.5922 17.4667 17.6606 17.546 17.7379 17.6161C17.8645 17.7416 17.989 17.8688 18.1097 18.0001C18.4565 18.3776 18.8319 18.7298 19.1627 19.1216C19.2086 19.1668 19.2705 19.1921 19.3349 19.1921C19.3993 19.1921 19.4611 19.1668 19.5071 19.1216C19.5515 19.0753 19.5764 19.0136 19.5764 18.9495C19.5764 18.8853 19.5515 18.8236 19.5071 18.7773C19.2015 18.4153 18.856 18.0899 18.5342 17.7429C18.398 17.5962 18.2621 17.45 18.12 17.309C18.0785 17.2679 18.0376 17.226 17.9959 17.1851C17.9806 17.17 17.9422 17.1168 17.9934 17.1878C17.9872 17.1793 17.9548 17.1223 17.959 17.1409V17.2704L17.9661 17.2427L17.9035 17.3501C17.8779 17.3801 17.9127 17.3424 17.9299 17.3328C17.9534 17.3197 17.9775 17.3073 18.002 17.2963C18.0771 17.2623 18.1542 17.2335 18.2304 17.2007C18.3759 17.1378 18.5193 17.0701 18.6604 16.9977C18.9199 16.8655 19.1708 16.7172 19.4119 16.5537C19.8178 16.292 20.1781 15.9656 20.4784 15.5873L20.096 15.6365C20.3582 15.895 20.5726 16.1979 20.7293 16.5312V16.2854C20.3209 17.1822 19.794 18.0202 19.1627 18.777C19.1186 18.8235 19.0941 18.8851 19.0941 18.9491C19.0941 19.0132 19.1186 19.0748 19.1627 19.1213C19.2086 19.1666 19.2704 19.1919 19.3349 19.192C19.3993 19.192 19.4612 19.1668 19.5072 19.1216Z" fill="#211715"/>
<path d="M15.835 18.7773C15.2036 18.0204 14.6767 17.1823 14.2683 16.2854V16.5312C14.425 16.198 14.6394 15.8951 14.9017 15.6365L14.5192 15.5873C14.8196 15.9655 15.1799 16.292 15.5858 16.5538C15.8206 16.7131 16.0649 16.858 16.3174 16.9876C16.4581 17.0601 16.6011 17.1279 16.7462 17.1913C16.8218 17.2242 16.8984 17.2543 16.9742 17.2872C17.0003 17.2986 17.0263 17.31 17.0513 17.3235C17.0681 17.3324 17.1241 17.385 17.0942 17.3499L17.0315 17.2424L17.0386 17.2701V17.1406C17.0428 17.1221 17.0104 17.179 17.0043 17.1875C17.055 17.1165 17.017 17.1698 17.0017 17.1848C16.96 17.2254 16.9191 17.2676 16.8776 17.3088C16.7356 17.4497 16.5996 17.5959 16.4634 17.7426C16.1417 18.0896 15.7961 18.415 15.4906 18.777C15.4464 18.8234 15.4218 18.8851 15.4218 18.9492C15.4218 19.0133 15.4464 19.0749 15.4906 19.1214C15.5365 19.1665 15.5983 19.1918 15.6628 19.1918C15.7272 19.1918 15.789 19.1665 15.835 19.1214C16.1252 18.7775 16.4519 18.4667 16.7595 18.1388C16.899 17.9901 17.0357 17.8393 17.1799 17.695C17.2656 17.6164 17.3455 17.5316 17.419 17.4414C17.5426 17.2757 17.5516 17.0742 17.3676 16.9464C17.201 16.8309 16.9883 16.7726 16.8051 16.6865C16.4242 16.5088 16.0601 16.2971 15.7173 16.054C15.4259 15.8544 15.1641 15.6146 14.9397 15.3418C14.9203 15.3104 14.8941 15.2837 14.8631 15.2636C14.832 15.2436 14.7969 15.2308 14.7603 15.226C14.7236 15.2213 14.6864 15.2248 14.6513 15.2363C14.6161 15.2478 14.584 15.267 14.5573 15.2925C14.3077 15.5288 14.0991 15.805 13.9401 16.1097C13.8757 16.1984 13.8327 16.3007 13.8145 16.4088C13.8349 16.5232 13.8778 16.6324 13.9407 16.7302C14.0219 16.9007 14.1069 17.0695 14.1959 17.2366C14.5608 17.9083 14.9947 18.5401 15.4906 19.1218C15.5365 19.1669 15.5983 19.1923 15.6628 19.1923C15.7272 19.1923 15.789 19.1669 15.835 19.1218C15.8794 19.0754 15.9042 19.0137 15.9042 18.9495C15.9042 18.8853 15.8794 18.8236 15.835 18.7773Z" fill="#211715"/>
<path d="M20.9075 16.4774C21.2727 16.7083 21.6093 16.9817 21.91 17.2919C22.0699 17.45 22.2201 17.6176 22.3598 17.7937C22.4193 17.8696 22.4753 17.9484 22.5277 18.0292C22.5542 18.0697 22.5798 18.1112 22.604 18.1532C22.6142 18.1711 22.6243 18.1891 22.6345 18.2072C22.6417 18.2204 22.6486 18.2337 22.6554 18.2471C22.6671 18.2709 22.6651 18.2644 22.6495 18.2276L22.6828 18.1046C22.7016 18.0864 22.6985 18.0857 22.6735 18.1027L22.6093 18.1381L22.5237 18.1853L22.2883 18.3152L21.8388 18.5631C21.8069 18.5821 21.7798 18.6082 21.7594 18.6392C21.7391 18.6703 21.726 18.7055 21.7213 18.7424C21.7165 18.7792 21.7202 18.8166 21.732 18.8518C21.7438 18.887 21.7635 18.9191 21.7895 18.9456C22.0127 19.1474 22.2342 19.3505 22.449 19.5608C22.5012 19.6119 22.5531 19.6635 22.6046 19.7155C22.6434 19.7547 22.7191 19.8046 22.7398 19.8548C22.7511 19.8822 22.7465 19.8582 22.7464 19.8514C22.7464 19.8666 22.7314 19.8856 22.7253 19.8982C22.6921 19.9668 22.6533 20.0334 22.6174 20.1011C22.3483 20.6048 22.0744 21.1058 21.7956 21.6043C21.2253 22.6265 20.6388 23.6398 20.0456 24.6483C19.719 25.203 19.3904 25.7566 19.0597 26.3091C18.8985 26.5788 19.3194 26.8239 19.4802 26.555C20.7274 24.4684 21.9609 22.3716 23.1025 20.2251C23.1832 20.0729 23.2604 19.9264 23.2196 19.7495C23.1801 19.5783 23.0329 19.4553 22.9144 19.3367C22.6621 19.0831 22.3984 18.8415 22.1331 18.6014L22.0838 18.9838L22.6832 18.6533C22.8582 18.5567 23.1262 18.464 23.1358 18.2278C23.1422 18.0733 23.0377 17.9234 22.957 17.7975C22.8649 17.6567 22.7649 17.5212 22.6574 17.3916C22.2338 16.8663 21.7256 16.4152 21.1537 16.0568C20.8855 15.893 20.6406 16.314 20.9078 16.4774H20.9075Z" fill="#211715"/>
<path d="M13.8444 16.0568C13.2723 16.4151 12.7639 16.8661 12.3399 17.3913C12.2325 17.5209 12.1324 17.6564 12.0403 17.7972C11.96 17.9223 11.8536 18.0732 11.8615 18.2275C11.8736 18.4639 12.1376 18.5556 12.3142 18.653L12.9135 18.9835L12.8642 18.6011C12.6111 18.8302 12.3594 19.061 12.1175 19.3019C12.0085 19.3955 11.9119 19.5026 11.83 19.6206C11.7881 19.6983 11.7671 19.7854 11.769 19.8736C11.771 19.9618 11.7959 20.0479 11.8412 20.1236C12.107 20.6627 12.4163 21.185 12.7132 21.7073C13.3343 22.7995 13.98 23.878 14.6357 24.9506C14.9995 25.5458 15.3658 26.1396 15.7345 26.7318C15.8995 26.9976 16.321 26.7532 16.155 26.486C14.9049 24.4729 13.6589 22.4534 12.5264 20.371C12.4508 20.232 12.3759 20.0928 12.3017 19.9534C12.2884 19.9284 12.2744 19.9035 12.2618 19.8783C12.2457 19.8459 12.2533 19.8632 12.2542 19.861C12.3033 19.7934 12.3616 19.7329 12.4274 19.6812C12.6798 19.4276 12.9435 19.186 13.2087 18.9459C13.2347 18.9194 13.2543 18.8873 13.2661 18.8521C13.2779 18.8169 13.2816 18.7795 13.2769 18.7427C13.2721 18.7058 13.2591 18.6706 13.2387 18.6395C13.2184 18.6085 13.1912 18.5824 13.1594 18.5634L12.71 18.3155L12.4959 18.1974L12.3888 18.1384C12.3697 18.1283 12.2929 18.0631 12.3154 18.1049L12.3487 18.2279C12.3503 18.2668 12.3317 18.2646 12.3566 18.2208C12.3667 18.2031 12.376 18.1849 12.3861 18.1671C12.4098 18.1251 12.435 18.084 12.461 18.0435C12.5127 17.9629 12.568 17.8842 12.6266 17.8085C13.0406 17.2898 13.5347 16.8406 14.0903 16.4777C14.3573 16.3145 14.1128 15.8931 13.8445 16.0571L13.8444 16.0568Z" fill="#211715"/>
<path d="M26.3767 28.9322L26.8577 28.8713C26.9218 28.8688 26.9829 28.8437 27.0302 28.8003C27.0528 28.7777 27.0708 28.7509 27.083 28.7213C27.0953 28.6917 27.1016 28.6601 27.1016 28.6281C27.1016 28.5961 27.0953 28.5644 27.083 28.5349C27.0708 28.5053 27.0528 28.4785 27.0302 28.4558C27.0079 28.4328 26.981 28.4146 26.9513 28.4023C26.9217 28.3901 26.8898 28.3842 26.8577 28.3848L26.3767 28.4457C26.3126 28.4481 26.2515 28.4733 26.2043 28.5167C26.1586 28.5624 26.1329 28.6243 26.1329 28.6889C26.1329 28.7535 26.1586 28.8154 26.2043 28.8611C26.2266 28.8841 26.2534 28.9023 26.2831 28.9145C26.3128 28.9268 26.3447 28.9328 26.3767 28.9322Z" fill="#211715"/>
<path d="M8.59383 28.4452L8.11288 28.3843C8.08086 28.3841 8.04912 28.3903 8.01951 28.4025C7.9899 28.4147 7.96301 28.4326 7.94039 28.4553C7.91776 28.4779 7.89981 28.5048 7.88757 28.5343C7.87532 28.5639 7.86902 28.5956 7.86902 28.6275C7.86902 28.6595 7.87532 28.6912 7.88757 28.7208C7.89981 28.7503 7.91776 28.7772 7.94039 28.7998L7.9897 28.8378C8.02698 28.8596 8.06939 28.8711 8.11258 28.8711L8.59353 28.932C8.62554 28.9321 8.65727 28.9259 8.68687 28.9137C8.71648 28.9015 8.74338 28.8836 8.76602 28.861C8.81169 28.8153 8.83734 28.7534 8.83734 28.6888C8.83734 28.6242 8.81169 28.5623 8.76602 28.5166L8.71671 28.4784C8.67945 28.4566 8.63702 28.4452 8.59383 28.4453V28.4452Z" fill="#211715"/>
<path d="M17.4988 22.1184C13.8955 22.1445 10.3094 22.1655 9.03655 22.1697C8.9884 22.1698 8.94074 22.1794 8.89631 22.198C8.85187 22.2165 8.81153 22.2436 8.7776 22.2778C8.74367 22.312 8.71681 22.3525 8.69856 22.397C8.68032 22.4416 8.67104 22.4893 8.67127 22.5375C8.67868 24.6062 8.77842 31.7654 8.85391 34.397C8.8567 34.4934 8.89742 34.5849 8.96723 34.6515C9.03704 34.7181 9.13031 34.7545 9.2268 34.7528C10.3774 34.735 13.9414 34.746 17.4983 34.7582C21.0552 34.746 24.6192 34.735 25.7699 34.7528C25.8664 34.7547 25.9598 34.7183 26.0297 34.6517C26.0996 34.5851 26.1404 34.4936 26.1433 34.3971C26.2193 31.7655 26.319 24.6063 26.3264 22.5376C26.3266 22.4894 26.3174 22.4417 26.2991 22.3971C26.2809 22.3526 26.254 22.3121 26.2201 22.2779C26.1861 22.2437 26.1458 22.2166 26.1014 22.1981C26.0569 22.1795 26.0093 22.1699 25.9611 22.1699C24.6882 22.1655 21.1022 22.1445 17.4988 22.1184Z" fill="white"/>
<path d="M17.4989 21.8749C14.9825 21.8931 12.4659 21.9089 9.94895 21.9223C9.76002 21.9233 9.57115 21.9242 9.38236 21.9249C9.20733 21.9256 9.00298 21.9012 8.83667 21.961C8.70926 22.0092 8.60073 22.0971 8.52713 22.2117C8.45352 22.3263 8.41876 22.4615 8.42797 22.5974C8.42844 22.7196 8.42915 22.8418 8.4301 22.9639C8.43497 23.6742 8.442 24.3843 8.4512 25.0941C8.47352 26.9856 8.50112 28.8771 8.534 30.7685C8.54881 31.6184 8.56542 32.4682 8.58382 33.3181C8.59119 33.646 8.59934 33.9741 8.60827 34.3023C8.61548 34.5616 8.6935 34.7995 8.93936 34.9273C9.1152 35.0186 9.31722 34.995 9.50838 34.9933C11.8184 34.9717 14.1291 34.9908 16.439 34.9984C19.0784 35.0071 21.7178 34.983 24.3573 34.9883C24.7415 34.989 25.1259 34.99 25.5102 34.9938C25.7079 34.9957 25.9085 35.0155 26.0876 34.9119C26.3311 34.7709 26.3834 34.5222 26.3906 34.2635C26.4108 33.5373 26.4255 32.8109 26.4396 32.0845C26.4765 30.1824 26.5069 28.2802 26.5309 26.3778C26.5419 25.5433 26.5517 24.7088 26.5603 23.8744C26.5633 23.5617 26.566 23.2491 26.5682 22.9365C26.569 22.8137 26.5712 22.6906 26.5702 22.5677C26.5748 22.4249 26.5302 22.285 26.444 22.1711C26.3577 22.0573 26.235 21.9765 26.0963 21.9424C25.9219 21.9181 25.7453 21.9124 25.5697 21.9253L25.006 21.9227C24.5147 21.9202 24.0235 21.9176 23.5323 21.9148C22.2221 21.9074 20.9119 21.8992 19.6015 21.8902C18.9007 21.8855 18.1999 21.8806 17.4993 21.8755C17.1858 21.8733 17.1854 22.3603 17.4993 22.3625C19.9672 22.3804 22.4352 22.3959 24.9032 22.4092C25.2481 22.4109 25.5991 22.3945 25.9439 22.4139C26.1008 22.4227 26.0833 22.555 26.0827 22.6766C26.0821 22.8012 26.0813 22.9257 26.0804 23.0503C26.0753 23.7511 26.0683 24.452 26.0593 25.1529C26.0372 27.0035 26.0102 28.8541 25.9781 30.7047C25.9636 31.5379 25.9475 32.3712 25.9297 33.2044C25.9225 33.5309 25.9146 33.8574 25.906 34.1838C25.9033 34.2852 25.9365 34.478 25.8058 34.5085C25.7376 34.5156 25.6689 34.5152 25.6008 34.5073C25.5236 34.5064 25.4464 34.5057 25.3692 34.5052C23.0909 34.4875 20.8121 34.5039 18.5339 34.5114C15.9522 34.5199 13.3706 34.497 10.7889 34.5006C10.391 34.5013 9.99319 34.5022 9.59544 34.5054C9.46065 34.5218 9.32436 34.5218 9.18957 34.5054C9.05625 34.469 9.09409 34.2599 9.09115 34.1528C9.07167 33.4238 9.05685 32.6946 9.04285 31.9656C9.00734 30.1135 8.97795 28.2614 8.95468 26.4093C8.94392 25.5929 8.93428 24.7765 8.92576 23.9599C8.92258 23.6502 8.91984 23.3404 8.91754 23.0305C8.91673 22.9071 8.91599 22.7837 8.91531 22.6601C8.9146 22.5141 8.91805 22.414 9.09115 22.4133C11.2094 22.4058 13.3276 22.3935 15.4458 22.3765C16.1301 22.3719 16.8145 22.3671 17.4989 22.3621C17.8121 22.3597 17.8128 21.8727 17.4989 21.8749Z" fill="#211715"/>
<path d="M10.4095 33.5256C12.1532 33.5148 13.8971 33.5241 15.6408 33.5295C17.7771 33.5361 19.9133 33.526 22.0496 33.5229C22.8958 33.5217 23.7421 33.5204 24.5884 33.5256C24.9019 33.5277 24.9022 33.0406 24.5884 33.0386C22.8447 33.0277 21.1008 33.0371 19.3571 33.0424C17.2207 33.049 15.0845 33.039 12.9482 33.0359C12.102 33.0346 11.2557 33.0333 10.4095 33.0386C10.0961 33.0405 10.0954 33.5277 10.4095 33.5256Z" fill="#211715"/>
<path d="M17.4989 27.1764C17.2357 27.1789 16.9725 27.1825 16.7093 27.1827C16.645 27.1836 16.5837 27.2096 16.5382 27.2551C16.4927 27.3005 16.4668 27.3619 16.4658 27.4262C16.4648 27.7023 16.4644 27.9784 16.4647 28.2545C16.4647 28.4168 16.4647 28.5792 16.4667 28.7415C16.4672 28.7998 16.4667 28.8583 16.469 28.9165C16.4676 28.9523 16.4737 28.988 16.4869 29.0213C16.5001 29.0545 16.5202 29.0847 16.5458 29.1097C16.5714 29.1347 16.6019 29.1541 16.6355 29.1666C16.669 29.179 16.7048 29.1843 16.7406 29.1821C17.2137 29.1821 17.6868 29.1788 18.1599 29.1811C18.2437 29.1931 18.3293 29.1824 18.4076 29.15C18.523 29.0825 18.5284 28.9619 18.53 28.8442C18.5322 28.692 18.5326 28.5405 18.533 28.3886C18.5337 28.068 18.5334 27.7473 18.5321 27.4267C18.5311 27.3624 18.5051 27.301 18.4597 27.2556C18.4142 27.2101 18.3528 27.1842 18.2885 27.1832C18.0253 27.1832 17.7621 27.1794 17.4989 27.1769C17.4343 27.1769 17.3724 27.2026 17.3267 27.2482C17.2811 27.2939 17.2554 27.3558 17.2554 27.4204C17.2554 27.485 17.2811 27.5469 17.3267 27.5926C17.3724 27.6383 17.4343 27.6639 17.4989 27.6639C17.7621 27.6665 18.0253 27.67 18.2885 27.6702L18.045 27.4267C18.047 27.9308 18.0537 28.4357 18.0413 28.9397L18.0746 28.8168L18.2848 28.6962C18.198 28.6881 18.1084 28.6936 18.0215 28.6937C17.8474 28.6937 17.6731 28.6954 17.499 28.6954C17.329 28.6954 17.1589 28.6938 16.9889 28.6937C16.8975 28.6937 16.8041 28.6878 16.7133 28.6962L16.9234 28.8164L16.9566 28.9393C16.9441 28.4353 16.9509 27.9304 16.9528 27.4263L16.7093 27.6698C16.9725 27.6698 17.2357 27.6661 17.4989 27.6635C17.5635 27.6635 17.6255 27.6379 17.6711 27.5922C17.7168 27.5465 17.7425 27.4846 17.7425 27.42C17.7425 27.3554 17.7168 27.2935 17.6711 27.2478C17.6255 27.2022 17.5635 27.1765 17.4989 27.1765V27.1764Z" fill="#211715"/>
<path d="M16.5573 12.8566C16.8649 13.0155 17.2075 13.0947 17.5536 13.0868C17.9095 13.0845 18.2704 13.015 18.5556 12.7926C18.6009 12.7468 18.6264 12.6849 18.6264 12.6204C18.6264 12.5559 18.6009 12.4941 18.5556 12.4482C18.5092 12.404 18.4475 12.3794 18.3834 12.3794C18.3193 12.3794 18.2577 12.404 18.2112 12.4482C18.284 12.3915 18.2236 12.4376 18.2049 12.4495C18.1863 12.4615 18.1643 12.4744 18.1428 12.4856C18.1269 12.4939 18.0523 12.5243 18.1157 12.5005C18.0872 12.5112 18.059 12.5223 18.03 12.5316C17.866 12.5848 17.6936 12.6079 17.5214 12.5996C17.4706 12.5996 17.4199 12.5976 17.3692 12.5941C17.3458 12.5925 17.3225 12.5907 17.2992 12.5883C17.2992 12.5883 17.2181 12.5775 17.2608 12.5841C17.185 12.5726 17.1101 12.556 17.0365 12.5343C17.0052 12.5249 16.9746 12.514 16.9436 12.503C16.9335 12.4996 16.9238 12.4943 16.9132 12.4913C16.974 12.5088 16.9341 12.5007 16.9171 12.4927C16.8787 12.4746 16.8408 12.4557 16.8032 12.4358C16.7471 12.4046 16.6811 12.3963 16.619 12.4126C16.5569 12.4288 16.5035 12.4685 16.47 12.5232C16.4381 12.5791 16.4293 12.6454 16.4457 12.7077C16.462 12.77 16.5022 12.8234 16.5574 12.8564L16.5573 12.8566Z" fill="#211715"/>
<path d="M17.4373 10.499C17.4837 10.6661 17.5207 10.8357 17.5483 11.0069L17.5397 10.9422C17.543 10.9654 17.5436 10.9889 17.5416 11.0123L17.5502 10.9476C17.5487 10.9583 17.5461 10.9689 17.5425 10.9791L17.5671 10.9209C17.564 10.928 17.5603 10.9348 17.556 10.9412L17.5941 10.892C17.5891 10.8979 17.5835 10.9034 17.5774 10.9083L17.6268 10.8702C17.6137 10.8782 17.6002 10.8853 17.5862 10.8914L17.6443 10.8669C17.6226 10.8764 17.5999 10.8832 17.5765 10.8872L17.6413 10.8786C17.6201 10.881 17.5987 10.881 17.5775 10.8786L17.6423 10.8872C17.6183 10.8838 17.5948 10.8781 17.5707 10.8748C17.5073 10.86 17.4406 10.8688 17.3831 10.8994C17.3555 10.9155 17.3313 10.9369 17.312 10.9624C17.2927 10.9879 17.2785 11.0169 17.2704 11.0479C17.2623 11.0788 17.2604 11.1111 17.2647 11.1427C17.2691 11.1744 17.2796 11.205 17.2958 11.2326C17.3112 11.2601 17.332 11.2841 17.3571 11.3033C17.3821 11.3225 17.4107 11.3364 17.4413 11.3442C17.4944 11.3514 17.546 11.3645 17.6 11.3673C17.6806 11.3678 17.7601 11.349 17.8319 11.3124C17.8771 11.2921 17.9171 11.2619 17.9491 11.2241C17.9811 11.1862 18.0041 11.1417 18.0166 11.0938C18.0329 11.0153 18.032 10.9343 18.0141 10.8562C17.9864 10.6926 17.9487 10.5304 17.9066 10.3699C17.8894 10.3076 17.8482 10.2547 17.792 10.2228C17.7359 10.1909 17.6693 10.1826 17.607 10.1998C17.5447 10.217 17.4918 10.2582 17.4599 10.3144C17.428 10.3705 17.4197 10.4371 17.4369 10.4994L17.4373 10.499Z" fill="#211715"/>
<path d="M14.7354 9.06498C14.6505 9.34067 14.7058 9.97473 15.2281 10.0289C15.918 10.0248 15.955 9.25777 15.7226 8.89767C15.5325 8.6024 14.973 8.47963 14.7354 9.06498Z" fill="#211715"/>
<path d="M20.2624 9.06498C20.3472 9.34067 20.2919 9.97473 19.7698 10.0289C19.0798 10.0248 19.0428 9.25777 19.2752 8.89767C19.4654 8.6024 20.0247 8.47963 20.2624 9.06498Z" fill="#211715"/>
<path d="M11.1988 11.8614C11.1933 12.255 11.184 12.6492 11.2039 13.0426C11.2094 13.3908 11.2644 13.7364 11.367 14.0691C11.5655 14.635 12.1539 14.9722 12.67 15.2039C12.7262 15.2346 12.792 15.2427 12.8539 15.2264C12.9158 15.2102 12.9692 15.1709 13.0031 15.1166C13.0352 15.0607 13.0441 14.9944 13.0277 14.9321C13.0114 14.8697 12.9711 14.8163 12.9157 14.7834C12.5045 14.599 11.955 14.3388 11.8143 13.8693C11.6223 13.2291 11.6767 12.521 11.6859 11.8614C11.6902 11.5479 11.2032 11.5477 11.1988 11.8614Z" fill="#211715"/>
<path d="M13.3993 14.5433C13.6645 14.7511 13.7131 15.09 13.5165 15.3261C13.4325 15.4152 13.3298 15.4847 13.2157 15.5294C13.1017 15.5741 12.9792 15.5931 12.857 15.5849C12.5918 15.5762 12.2372 15.3175 12.1955 15.0208C12.1549 14.7333 12.4999 14.4868 12.8171 14.4183C12.9173 14.3932 13.0218 14.3914 13.1228 14.4131C13.2237 14.4348 13.3183 14.4793 13.3993 14.5433Z" fill="#211715"/>
<path d="M11.269 7.91585C10.5625 8.04106 10.2693 8.99688 10.3267 9.81114C10.381 10.5823 10.5857 11.406 11.2576 11.7952C11.523 11.9156 11.9242 11.9756 12.1578 11.7233C12.3914 11.4709 12.4435 11.0936 12.4639 10.7418C12.4998 10.123 12.474 9.50219 12.387 8.88851C12.3381 8.54444 12.2681 8.29199 12.01 8.07445C11.7836 7.88399 11.4694 7.88034 11.269 7.91585Z" fill="white"/>
<path d="M11.2043 7.68104C10.5113 7.8163 10.1932 8.55365 10.1075 9.18274C10.0641 9.54857 10.0737 9.91872 10.1358 10.2818C10.1832 10.6418 10.2949 10.9903 10.4653 11.3109C10.6392 11.623 10.911 11.9224 11.2496 12.0539C11.5899 12.1858 12.0084 12.1858 12.2923 11.9322C12.599 11.6582 12.6736 11.2092 12.7023 10.8206C12.7348 10.3552 12.7309 9.88799 12.6904 9.42322C12.6543 8.99138 12.6389 8.47146 12.3706 8.10852C12.0887 7.72721 11.6595 7.60657 11.2043 7.68104C11.1423 7.6986 11.0897 7.73987 11.0578 7.79593C11.026 7.85198 11.0175 7.91831 11.0342 7.98057C11.0527 8.04202 11.0941 8.094 11.1499 8.12568C11.2057 8.15735 11.2716 8.16629 11.3338 8.15063C11.4564 8.12541 11.5837 8.13649 11.7 8.18252C11.8164 8.22855 11.9169 8.30753 11.989 8.40977C12.155 8.65938 12.1644 9.01329 12.192 9.30146C12.2306 9.69901 12.2436 10.0986 12.231 10.4978C12.2209 10.8098 12.2227 11.1706 12.0593 11.4482C11.9274 11.6733 11.7031 11.6867 11.4698 11.616C11.2246 11.5416 11.0303 11.3148 10.9031 11.096C10.6222 10.6131 10.5338 9.97733 10.5682 9.42606C10.5805 9.13745 10.6541 8.85477 10.7842 8.59688C10.8346 8.48483 10.9104 8.3861 11.0057 8.30858C11.1009 8.23106 11.213 8.1769 11.333 8.15042C11.3951 8.13301 11.4479 8.09185 11.4799 8.03585C11.512 7.97985 11.5207 7.91349 11.5042 7.8511C11.4859 7.78947 11.4445 7.73733 11.3885 7.70562C11.3326 7.67391 11.2666 7.6651 11.2043 7.68104Z" fill="#211715"/>
</g>
<defs>
<clipPath id="clip0_109_1148">
<rect width="35" height="35" fill="white"/>
</clipPath>
</defs>
</svg>
